; NON-PLATED HOLES START AT T1
; THROUGH (PLATED) HOLES START AT T100
M48
INCH
T100C0.035000
T101C0.036111
T102C0.038000
T103C0.015748
T104C0.031497
%
T100
X011184Y006765
X013184Y002765
X012284Y012965
X011384Y012965
X013184Y006765
X011184Y002765
X013184Y012965
T101
X000684Y003765
X000684Y008765
X000684Y005765
X009684Y009765
X000684Y006765
X009684Y008765
X009684Y004765
X009684Y005765
X009684Y010765
X009684Y006765
X000684Y004765
X000684Y009765
X000684Y010765
X009684Y007765
X000684Y007765
X009684Y003765
T102
X013184Y000865
X012184Y000865
X011184Y000865
T103
X003279Y005772
T104
X013184Y009665
X011184Y010650
X011184Y009665
X013184Y010650
T00
M30
