G04 MADE WITH FRITZING*
G04 WWW.FRITZING.ORG*
G04 DOUBLE SIDED*
G04 HOLES PLATED*
G04 CONTOUR ON CENTER OF CONTOUR VECTOR*
%ASAXBY*%
%FSLAX23Y23*%
%MOIN*%
%OFA0B0*%
%SFA1.0B1.0*%
%ADD10C,0.039370*%
%ADD11C,0.077778*%
%ADD12C,0.062992*%
%ADD13C,0.075000*%
%ADD14C,0.078000*%
%ADD15R,0.062992X0.062992*%
%ADD16C,0.024000*%
%ADD17R,0.001000X0.001000*%
%LNCOPPER1*%
G90*
G70*
G54D10*
X328Y577D03*
G54D11*
X68Y1077D03*
X68Y977D03*
X68Y877D03*
X68Y777D03*
X68Y677D03*
X68Y577D03*
X68Y477D03*
X68Y377D03*
X968Y377D03*
X968Y477D03*
X968Y577D03*
X968Y677D03*
X968Y777D03*
X968Y877D03*
X968Y977D03*
X968Y1077D03*
G54D12*
X1318Y967D03*
X1318Y1065D03*
X1118Y967D03*
X1118Y1065D03*
G54D13*
X1318Y677D03*
X1318Y277D03*
X1118Y677D03*
X1118Y277D03*
G54D14*
X1318Y87D03*
X1218Y87D03*
X1118Y87D03*
G54D13*
X1138Y1297D03*
X1228Y1297D03*
X1318Y1297D03*
G54D15*
X1318Y967D03*
X1118Y967D03*
G54D16*
X1238Y276D02*
X1238Y777D01*
D02*
X1319Y186D02*
X1319Y117D01*
D02*
X1189Y186D02*
X1319Y186D01*
D02*
X968Y86D02*
X1088Y86D01*
D02*
X1292Y1065D02*
X1145Y1065D01*
D02*
X1119Y1147D02*
X738Y1146D01*
D02*
X738Y1146D02*
X738Y477D01*
D02*
X738Y477D02*
X939Y477D01*
D02*
X1119Y1092D02*
X1119Y1147D01*
D02*
X328Y1186D02*
X328Y677D01*
D02*
X328Y677D02*
X98Y677D01*
D02*
X1228Y1187D02*
X328Y1186D01*
D02*
X1228Y1268D02*
X1228Y1187D01*
D02*
X1318Y940D02*
X1318Y705D01*
D02*
X1238Y777D02*
X998Y777D01*
D02*
X1290Y276D02*
X1238Y276D01*
D02*
X968Y347D02*
X968Y86D01*
D02*
X1189Y476D02*
X1189Y186D01*
D02*
X998Y477D02*
X1189Y476D01*
D02*
X1318Y1268D02*
X1318Y1092D01*
D02*
X309Y577D02*
X98Y577D01*
G54D17*
D02*
G04 End of Copper1*
M02*